<?xml version="1.0" encoding="UTF-8" standalone="no"?>
<!-- Created with Inkscape (http://www.inkscape.org/) -->

<svg
   width="9.0mm"
   height="9.399999618530273mm"
   viewBox="0 0 9.0 9.399999618530273"
   version="1.1"
   id="svg22812"
   sodipodi:docname="logo_kicad.svg"
   inkscape:version="1.1.1 (3bf5ae0d25, 2021-09-20)"
   xmlns:inkscape="http://www.inkscape.org/namespaces/inkscape"
   xmlns:sodipodi="http://sodipodi.sourceforge.net/DTD/sodipodi-0.dtd"
   xmlns="http://www.w3.org/2000/svg"
   xmlns:svg="http://www.w3.org/2000/svg">
  <sodipodi:namedview
     id="namedview22814"
     pagecolor="#ffffff"
     bordercolor="#666666"
     borderopacity="1.0"
     inkscape:pageshadow="2"
     inkscape:pageopacity="0.0"
     inkscape:pagecheckerboard="0"
     inkscape:document-units="mm"
     showgrid="false"
     inkscape:zoom="5.6340776"
     inkscape:cx="24.316314"
     inkscape:cy="33.102135"
     inkscape:window-width="1364"
     inkscape:window-height="746"
     inkscape:window-x="0"
     inkscape:window-y="20"
     inkscape:window-maximized="1"
     inkscape:current-layer="g22927" />
  <defs
     id="defs22809" />
  <g
     inkscape:label="[fixed] BG"
     inkscape:groupmode="layer"
     sodipodi:insensitive="true"
     id="g22925">
    <rect
       x="0"
       y="0"
       width="9.0"
       height="9.399999618530273"
       style="fill:#FFFFFF;fill-opacity:1;stroke:none"
       id="rect22923" />
  </g>
  <g
     inkscape:label="F.SilkS"
     inkscape:groupmode="layer"
     id="g22927">
    <path
       id="path9843"
       style="display:inline;fill:#000000;fill-opacity:1;stroke:none;stroke-width:0.0153403"
       d="m 4.24517,1.117695 c -1.8308,0 -3.19662,1.249512 -3.19662,2.361028 0,0.421384 0.18888,0.777321 0.56663,1.060641 l -0.0726,2.717085 c -0.007,0.101691 0.0364,0.21069 0.10901,0.283317 0.0726,0.07269 0.17432,0.116266 0.28332,0.116266 h 4.62051 l 1.3e-4,4.4e-5 c 0.10169,0 0.20338,-0.04364 0.27595,-0.123457 C 6.9042,7.459979 6.94051,7.358303 6.94051,7.249302 L 6.86791,4.532219 C 7.0324,4.414289 7.16078,4.281659 7.25424,4.135131 7.24164,3.929791 7.21854,3.909858 7.06651,3.952529 c -0.01,0.0027 -0.019,0.0038 -0.0286,0.0062 -2.1e-4,3.48e-4 -3.4e-4,7.13e-4 -5.4e-4,0.0011 -0.009,0.0023 -0.0183,0.003 -0.0275,0.005 -0.0208,0.0043 -0.0415,0.0086 -0.062,0.01124 -0.0125,0.0016 -0.0247,0.0021 -0.0371,0.0031 -0.0203,0.0016 -0.0405,0.0033 -0.0605,0.0032 -0.0125,-3.5e-5 -0.0247,-0.0013 -0.0371,-0.002 -0.0194,-0.0011 -0.0388,-0.002 -0.0578,-0.0047 -0.0129,-0.0018 -0.0255,-0.005 -0.0382,-0.0076 -0.0179,-0.0036 -0.036,-0.0068 -0.0535,-0.01184 -0.0136,-0.0039 -0.0268,-0.0094 -0.0402,-0.0142 -0.0162,-0.0058 -0.0326,-0.01094 -0.0484,-0.018 -0.0146,-0.0065 -0.0287,-0.01484 -0.043,-0.02243 -0.0139,-0.0074 -0.0281,-0.01395 -0.0416,-0.02236 -0.0173,-0.01072 -0.0339,-0.0235 -0.0506,-0.03586 -0.01,-0.0073 -0.0202,-0.01358 -0.0299,-0.02148 -0.0261,-0.02132 -0.0515,-0.04463 -0.0759,-0.07011 -0.0203,-0.02114 -0.0408,-0.04761 -0.0605,-0.0773 -0.0335,-0.05045 -0.0631,-0.110214 -0.0869,-0.169096 -0.004,-0.01044 -0.01,-0.02087 -0.0134,-0.03119 -0.0123,-0.03427 -0.0218,-0.06762 -0.0273,-0.09793 -0.004,-0.02117 -0.0108,-0.04173 -0.0189,-0.05782 -0.008,-0.01609 -0.0174,-0.0277 -0.0258,-0.03094 -0.0169,-0.0065 -0.0873,0.0033 -0.15651,0.02171 -0.15744,0.04195 -0.27274,0.04241 -0.40997,0.0017 -0.1386,-0.04116 -0.25736,-0.12231 -0.3465,-0.226577 -0.0149,-0.01738 -0.0289,-0.03539 -0.0421,-0.05398 -0.0132,-0.01859 -0.0255,-0.03773 -0.0368,-0.05737 -0.0114,-0.01963 -0.0219,-0.03974 -0.0314,-0.06027 -0.0285,-0.06159 -0.0485,-0.126835 -0.0585,-0.193657 -3.3e-4,-0.0022 -3.6e-4,-0.0045 -6.7e-4,-0.0067 -0.006,-0.04238 -0.008,-0.08531 -0.006,-0.128355 0.002,-0.04531 0.01,-0.09068 0.0218,-0.135502 0.006,-0.02211 0.0118,-0.04987 0.0163,-0.07678 0.004,-0.02691 0.008,-0.05296 0.008,-0.07168 9.9e-4,-0.02532 0.001,-0.04127 -0.005,-0.05328 -0.002,-0.004 -0.005,-0.0075 -0.01,-0.01088 -0.0168,-0.01331 -0.0509,-0.02283 -0.11836,-0.04142 -0.0334,-0.0092 -0.0654,-0.01996 -0.0962,-0.03227 -0.0307,-0.0123 -0.0601,-0.02614 -0.088,-0.04146 -0.0839,-0.04595 -0.15512,-0.105268 -0.2124,-0.176691 0,0 0,-2.3e-5 0,-2.3e-5 -0.0191,-0.0238 -0.0367,-0.04894 -0.0526,-0.07539 0,0 0,-2.3e-5 0,-2.3e-5 -0.0319,-0.0529 -0.0574,-0.110993 -0.0761,-0.173905 -0.009,-0.03043 -0.0153,-0.05997 -0.0203,-0.08926 -0.002,-0.0093 -0.003,-0.01867 -0.004,-0.02789 -0.003,-0.02087 -0.004,-0.04183 -0.005,-0.06269 -2.7e-4,-0.0096 -8.7e-4,-0.01935 -7e-4,-0.02901 5.2e-4,-0.02693 0.002,-0.05408 0.006,-0.08193 1.1e-4,4e-6 2.2e-4,2.3e-5 3.3e-4,2.3e-5 0.005,-0.03726 0.0129,-0.07548 0.0242,-0.115974 0.0285,-0.101483 0.036,-0.146722 -0.0316,-0.167478 -0.0415,-0.0013 -0.083,-0.0027 -0.12503,-0.0027 z" />
    <path
       style="color:#000000;display:inline;fill:#000000;stroke:none;stroke-width:0.0153404;stroke-linecap:round;-inkscape-stroke:none"
       d="m 5.74071,1.22928 c -0.0576,0.0031 -0.11539,0.0096 -0.17297,0.01974 a 0.20701034,0.20701034 0 0 0 -0.1679,0.239813 0.20701034,0.20701034 0 0 0 0.23981,0.167935 c 0.32801,-0.05784 0.66303,0.0478 0.89855,0.283317 0.23552,0.23552 0.34115,0.570533 0.28331,0.898549 A 0.20701034,0.20701034 0 0 0 6.98945,3.078447 0.20701034,0.20701034 0 0 0 7.22926,2.910542 C 7.31046,2.449923 7.16166,1.978062 6.83095,1.64733 6.54156,1.35794 6.14413,1.207863 5.74071,1.229276 Z"
       id="path9845" />
    <path
       style="color:#000000;display:inline;fill:#000000;stroke:none;stroke-width:0.0153404;stroke-linecap:round;-inkscape-stroke:none"
       d="m 5.70817,0.616504 c -0.0823,0.0044 -0.16475,0.01376 -0.24697,0.02825 A 0.20701034,0.20701034 0 0 0 5.29326,0.884567 0.20701034,0.20701034 0 0 0 5.53308,1.052472 c 0.52517,-0.0926 1.06194,0.07663 1.43902,0.453709 0.37709,0.377083 0.54631,0.913852 0.45371,1.439026 A 0.20701034,0.20701034 0 0 0 7.59372,3.18502 0.20701034,0.20701034 0 0 0 7.83353,3.017085 C 7.94951,2.359307 7.73713,1.685721 7.26486,1.213426 6.8516,0.800168 6.28422,0.585908 5.70817,0.6165 Z"
       id="path9847" />
    <path
       style="color:#000000;display:inline;fill:#000000;stroke:none;stroke-width:0.0153404;stroke-linecap:round;-inkscape-stroke:none"
       d="m 5.83584,7.4e-5 c -0.15988,-0.0012 -0.32089,0.01212 -0.48119,0.04039 A 0.20701034,0.20701034 0 0 0 5.18672,0.280277 0.20701034,0.20701034 0 0 0 5.42653,0.448182 C 6.14887,0.320815 6.88733,0.553666 7.40598,1.072313 7.92462,1.590959 8.15747,2.329424 8.03011,3.051757 A 0.20701034,0.20701034 0 0 0 8.19801,3.29157 0.20701034,0.20701034 0 0 0 8.43782,3.123635 C 8.58857,2.268698 8.31259,1.393415 7.69873,0.779558 7.19997,0.280798 6.52863,0.005074 5.83584,7.6e-5 Z"
       id="path9849" />
    <path
       style="color:#000000;display:inline;fill:#000000;stroke:none;stroke-width:0.0153404;stroke-linecap:round;-inkscape-stroke:none"
       d="m 5.77325,1.842025 c -0.033,0.0017 -0.066,0.0055 -0.0989,0.0113 A 0.20701034,0.20701034 0 0 0 5.50642,2.093138 0.20701034,0.20701034 0 0 0 5.74623,2.261073 c 0.13086,-0.02307 0.26418,0.01894 0.35813,0.112895 0.094,0.09396 0.13597,0.227274 0.1129,0.358131 A 0.20701034,0.20701034 0 0 0 6.38519,2.971912 0.20701034,0.20701034 0 0 0 6.62501,2.803977 C 6.67141,2.540517 6.58631,2.270382 6.39712,2.081213 6.2316,1.915691 6.00408,1.829797 5.77329,1.84203 Z"
       id="path9851" />
    <g
       aria-label="BREADEBYTE"
       id="text11386"
       style="font-size:0.981783px;line-height:1.25;font-family:'SYFY Fantasy';-inkscape-font-specification:'SYFY Fantasy';display:inline;stroke-width:0.0115052">
      <path
         d="M 0.50267624,8.862692 V 8.7546959 H 0.35639058 V 8.862692 Z m 0,0.3210431 V 9.0767207 H 0.35639058 V 9.1837351 Z M 0.14334367,8.5396854 h 0.70099304 q 0.005891,0 0.009818,0.00491 0.004909,0.00393 0.004909,0.0108 V 8.862692 L 0.75204911,8.9697064 0.85906346,9.0767207 v 0.3072981 q 0,0.00589 -0.004909,0.0108 -0.003927,0.00393 -0.009818,0.00393 H 0.0147301 q -0.0058907,0 -0.01079961,-0.00393 -0.00392713351,-0.00491 -0.00392713351,-0.0108 V 8.6830257 Z"
         id="path23032" />
      <path
         d="M 1.4127883,8.9687246 V 8.7546959 H 1.2665027 V 8.9687246 Z M 1.626817,9.1847168 1.7691756,9.2652231 V 9.383037 q 0,0.00687 -0.00491,0.011781 -0.00393,0.00393 -0.0108,0.00393 H 1.4275151 q -0.00589,0 -0.0108,-0.00393 -0.00393,-0.00491 -0.00393,-0.0108 V 9.1837351 H 1.2665027 v 0.2002837 q 0,0.00589 -0.00491,0.0108 -0.00393,0.00393 -0.0108,0.00393 H 0.92287863 q -0.005891,0 -0.0107996,-0.00393 -0.003927,-0.00491 -0.003927,-0.0108 V 8.6830257 L 1.0514922,8.5396854 h 0.700993 q 0.00589,0 0.00982,0.00491 0.00491,0.00393 0.00491,0.00982 v 0.4859826 z"
         id="path23034" />
      <path
         d="m 1.9606214,8.541649 h 0.6980477 q 0.00589,0 0.00982,0.00491 0.00491,0.00393 0.00491,0.0108 v 0.1826117 q 0,0.00589 -0.00491,0.0108 -0.00393,0.00393 -0.00982,0.00491 H 2.1736683 v 0.1060326 l 0.4850008,9.817e-4 q 0.00589,0 0.00982,0.00491 0.00491,0.00393 0.00491,0.00982 v 0.1835934 q 0,0.00589 -0.00491,0.0108 -0.00393,0.00393 -0.00982,0.00393 H 2.1736683 v 0.1070144 h 0.4850008 q 0.00589,0 0.00982,0.00491 0.00491,0.00491 0.00491,0.0108 v 0.1835934 q 0,0.00589 -0.00491,0.0108 -0.00393,0.00393 -0.00982,0.00393 H 1.9606214 L 1.8182628,9.2544234 V 8.6840075 Z"
         id="path23036" />
      <path
         d="M 3.0788718,8.9697064 H 3.2251575 V 8.7546959 H 3.0788718 Z m 0.3593326,-0.430021 0.1433403,0.1433403 v 0.7009931 q 0,0.00589 -0.00491,0.0108 -0.00393,0.00393 -0.00982,0.00393 H 3.2398842 q -0.00589,0 -0.0108,-0.00393 -0.00393,-0.00491 -0.00393,-0.0108 V 9.1837351 H 3.0788718 v 0.2002837 q 0,0.00589 -0.00491,0.0108 -0.00393,0.00393 -0.00982,0.00393 H 2.7372114 q -0.00589,0 -0.0108,-0.00393 -0.00393,-0.00491 -0.00393,-0.0108 V 8.6830257 L 2.8658249,8.5396854 Z"
         id="path23038" />
      <path
         d="M 4.1352696,9.1837351 V 8.7546959 H 3.9889839 V 9.1837351 Z M 4.3463529,8.5396854 4.4896932,8.6830257 V 9.2554052 L 4.3463529,9.3987455 h -0.700993 q -0.00589,0 -0.0108,-0.00393 -0.00393,-0.00491 -0.00393,-0.0108 V 8.555394 q 0,-0.00687 0.00393,-0.0108 0.00491,-0.00491 0.0108,-0.00491 z"
         id="path23040" />
      <path
         d="m 4.6811402,8.541649 h 0.6980477 q 0.00589,0 0.00982,0.00491 0.00491,0.00393 0.00491,0.0108 v 0.1826117 q 0,0.00589 -0.00491,0.0108 -0.00393,0.00393 -0.00982,0.00491 H 4.8941871 v 0.1060326 l 0.4850008,9.817e-4 q 0.00589,0 0.00982,0.00491 0.00491,0.00393 0.00491,0.00982 v 0.1835934 q 0,0.00589 -0.00491,0.0108 -0.00393,0.00393 -0.00982,0.00393 H 4.8941871 v 0.1070144 h 0.4850008 q 0.00589,0 0.00982,0.00491 0.00491,0.00491 0.00491,0.0108 v 0.1835934 q 0,0.00589 -0.00491,0.0108 -0.00393,0.00393 -0.00982,0.00393 H 4.6811402 L 4.5387817,9.2544234 V 8.6840075 Z"
         id="path23042" />
      <path
         d="M 5.9456761,8.862692 V 8.7546959 H 5.7993904 V 8.862692 Z m 0,0.3210431 V 9.0767207 H 5.7993904 V 9.1837351 Z M 5.5863435,8.5396854 h 0.7009931 q 0.00589,0 0.00982,0.00491 0.00491,0.00393 0.00491,0.0108 V 8.862692 L 6.195049,8.9697064 6.3020633,9.0767207 v 0.3072981 q 0,0.00589 -0.00491,0.0108 -0.00393,0.00393 -0.00982,0.00393 H 5.4577299 q -0.00589,0 -0.0108,-0.00393 -0.00393,-0.00491 -0.00393,-0.0108 V 8.6830257 Z"
         id="path23044" />
      <path
         d="M 7.2102121,8.8980362 6.9755659,9.1120649 v 0.2719539 q 0,0.00589 -0.00491,0.0108 -0.00393,0.00393 -0.00982,0.00393 H 6.6005248 q -0.00589,0 -0.0108,-0.00393 -0.00393,-0.00491 -0.00393,-0.0108 V 9.1120649 L 6.351152,8.8980362 v -0.343624 q 0,-0.00589 0.00393,-0.00982 0.00491,-0.00491 0.0108,-0.00491 H 6.68594 q 0.00687,0 0.0108,0.00491 0.00491,0.00393 0.00491,0.00982 V 8.9687246 H 6.8636427 V 8.5544122 q 0,-0.00589 0.00393,-0.00982 0.00491,-0.00491 0.0108,-0.00491 h 0.3171159 q 0.00589,0 0.00982,0.00491 0.00491,0.00393 0.00491,0.00982 z"
         id="path23046" />
      <path
         d="m 8.0957793,8.682044 v 0.072652 H 7.8562243 V 9.383037 q 0,0.00687 -0.00491,0.011781 -0.00393,0.00393 -0.00982,0.00393 H 7.5145638 q -0.00687,0 -0.011781,-0.00393 -0.00393,-0.00491 -0.00393,-0.011781 V 8.7546959 H 7.2593003 V 8.682044 L 7.4026406,8.5387037 h 0.5507802 z"
         id="path23048" />
      <path
         d="m 8.287226,8.541649 h 0.6980477 q 0.00589,0 0.00982,0.00491 0.00491,0.00393 0.00491,0.0108 v 0.1826117 q 0,0.00589 -0.00491,0.0108 -0.00393,0.00393 -0.00982,0.00491 H 8.5002729 v 0.1060326 l 0.4850008,9.817e-4 q 0.00589,0 0.00982,0.00491 0.00491,0.00393 0.00491,0.00982 v 0.1835934 q 0,0.00589 -0.00491,0.0108 -0.00393,0.00393 -0.00982,0.00393 H 8.5002729 v 0.1070144 h 0.4850008 q 0.00589,0 0.00982,0.00491 0.00491,0.00491 0.00491,0.0108 v 0.1835934 q 0,0.00589 -0.00491,0.0108 -0.00393,0.00393 -0.00982,0.00393 H 8.287226 L 8.1448674,9.2544234 V 8.6840075 Z"
         id="path23050" />
    </g>
  </g>
</svg>
