<?xml version="1.0" encoding="UTF-8" standalone="no"?>
<!-- Created with Inkscape (http://www.inkscape.org/) -->

<svg
   width="206.97052mm"
   height="216.14024mm"
   viewBox="0 0 206.97052 216.14024"
   version="1.1"
   id="svg22526"
   sodipodi:docname="logo.svg"
   inkscape:version="1.1.1 (3bf5ae0d25, 2021-09-20)"
   xmlns:inkscape="http://www.inkscape.org/namespaces/inkscape"
   xmlns:sodipodi="http://sodipodi.sourceforge.net/DTD/sodipodi-0.dtd"
   xmlns="http://www.w3.org/2000/svg"
   xmlns:svg="http://www.w3.org/2000/svg">
  <sodipodi:namedview
     id="namedview22528"
     pagecolor="#ffffff"
     bordercolor="#666666"
     borderopacity="1.0"
     inkscape:pageshadow="2"
     inkscape:pageopacity="0.0"
     inkscape:pagecheckerboard="0"
     inkscape:document-units="mm"
     showgrid="false"
     inkscape:zoom="0.24899341"
     inkscape:cx="184.74385"
     inkscape:cy="122.4932"
     inkscape:window-width="1364"
     inkscape:window-height="746"
     inkscape:window-x="0"
     inkscape:window-y="20"
     inkscape:window-maximized="1"
     inkscape:current-layer="layer1" />
  <defs
     id="defs22523" />
  <g
     inkscape:label="Layer 1"
     inkscape:groupmode="layer"
     id="layer1"
     transform="translate(162.4601,-21.568518)">
    <path
       id="path9843"
       style="display:inline;fill:#000000;fill-opacity:1;stroke:none;stroke-width:0.352777"
       d="m -64.835165,47.271725 c -42.102265,0 -73.511795,28.734691 -73.511795,54.295905 0,9.69046 4.34358,17.87583 13.03073,24.39128 l -1.67018,62.48404 c -0.16672,2.33857 0.83663,4.84518 2.50683,6.51537 1.6704,1.67156 4.0087,2.67374 6.51536,2.67374 h 106.256562 l 0.0031,0.001 c 2.3385645,0 4.6770525,-1.00356 6.3458669,-2.8391 1.671566,-1.6704 2.5068238,-4.0087 2.5068238,-6.51536 l -1.6701862,-62.484 c 3.78270285,-2.71202 6.7349924,-5.76206 8.8842108,-9.13174 -0.2893484,-4.72215 -0.8197242,-5.18053 -4.31704748,-4.19923 -0.22128163,0.0621 -0.43760231,0.0883 -0.65784148,0.14211 -0.00463,0.008 -0.007752,0.0164 -0.0124089,0.0243 -0.21259006,0.0518 -0.42045474,0.0701 -0.63200234,0.11421 -0.4779089,0.0997 -0.9548098,0.19783 -1.4267868,0.25838 -0.2864828,0.0369 -0.5680868,0.0483 -0.8521435,0.0708 -0.4663678,0.0368 -0.9324948,0.0751 -1.3916447,0.0734 -0.2875624,-8e-4 -0.568706,-0.0306 -0.853178,-0.0465 -0.4456351,-0.0252 -0.8917094,-0.0456 -1.3291185,-0.10749 -0.2971245,-0.0418 -0.585986,-0.11549 -0.8790173,-0.17415 -0.4124008,-0.0829 -0.8267039,-0.15619 -1.2304158,-0.27233 -0.3137455,-0.09 -0.6168734,-0.21667 -0.9250075,-0.3266 -0.37244,-0.13323 -0.748866,-0.25166 -1.112594,-0.41392 -0.336581,-0.14983 -0.659397,-0.34116 -0.988052,-0.51574 -0.319778,-0.17015 -0.645702,-0.32072 -0.957566,-0.51418 -0.39786,-0.24647 -0.77851,-0.5405 -1.16272,-0.82475 -0.227568,-0.16852 -0.464235,-0.31235 -0.686779,-0.49403 -0.601038,-0.49036 -1.184177,-1.0263 -1.746147,-1.61231 -0.466206,-0.48614 -0.938236,-1.09478 -1.391644,-1.77766 -0.770332,-1.16018 -1.451703,-2.53455 -1.997814,-3.88865 -0.0968,-0.24004 -0.223636,-0.47985 -0.309022,-0.71727 -0.283467,-0.78819 -0.500891,-1.555114 -0.627354,-2.252063 -0.08832,-0.486733 -0.248224,-0.959676 -0.434599,-1.329635 -0.186373,-0.369956 -0.399211,-0.636928 -0.593762,-0.711583 -0.389096,-0.14931 -2.00886,0.07541 -3.599262,0.499194 -3.620453,0.964761 -6.272101,0.975387 -9.42785,0.03824 -3.187523,-0.946597 -5.91846,-2.812735 -7.968504,-5.210535 -0.341675,-0.399616 -0.664591,-0.813914 -0.967383,-1.241269 -0.302876,-0.427471 -0.585607,-0.867667 -0.847495,-1.3193 -0.261826,-0.451501 -0.502623,-0.913905 -0.721402,-1.385961 -0.656392,-1.416304 -1.114279,-2.916796 -1.345655,-4.453475 -0.0077,-0.05116 -0.0083,-0.103267 -0.0155,-0.154511 -0.136993,-0.974662 -0.189584,-1.961886 -0.136943,-2.951758 0.05542,-1.041913 0.220025,-2.085332 0.50178,-3.116091 0.138996,-0.508513 0.272005,-1.146765 0.374653,-1.765781 0.102703,-0.618821 0.174839,-1.217938 0.191719,-1.648479 0.02281,-0.582339 0.03346,-0.949123 -0.126089,-1.225248 -0.05313,-0.09203 -0.124947,-0.173601 -0.221692,-0.250116 -0.386937,-0.306043 -1.169554,-0.524968 -2.721798,-0.952397 -0.767699,-0.211391 -1.505238,-0.459097 -2.211753,-0.742071 -0.706368,-0.282895 -1.381228,-0.601149 -2.024165,-0.953431 -1.928741,-1.056826 -3.567248,-2.420819 -4.884457,-4.063318 0,0 0,-5.29e-4 0,-5.29e-4 -0.438994,-0.547436 -0.84269,-1.125564 -1.209228,-1.733746 0,0 0,-5.29e-4 0,-5.29e-4 -0.733192,-1.216631 -1.319083,-2.552462 -1.748729,-3.99924 -0.20783,-0.699845 -0.352555,-1.379101 -0.466638,-2.052588 -0.03639,-0.213251 -0.06079,-0.429252 -0.08785,-0.641305 -0.06048,-0.480001 -0.0968,-0.96203 -0.109553,-1.44177 -0.0062,-0.220892 -0.02,-0.445034 -0.01603,-0.667144 0.01188,-0.619363 0.05327,-1.243782 0.143145,-1.884122 0.0026,9.6e-5 0.0052,5.29e-4 0.0078,5.29e-4 0.1201,-0.856871 0.295807,-1.735883 0.557072,-2.667021 0.654825,-2.333775 0.826921,-3.374122 -0.725538,-3.851444 -0.95473,-0.02971 -1.909037,-0.06098 -2.875277,-0.06098 z" />
    <path
       style="color:#000000;display:inline;fill:#000000;stroke:none;stroke-width:0.352778;stroke-linecap:round;-inkscape-stroke:none"
       d="m -30.442606,49.837806 c -1.325326,0.07034 -2.653615,0.220588 -3.977707,0.45406 a 4.7605596,4.7605596 0 0 0 -3.861265,5.514912 4.7605596,4.7605596 0 0 0 5.514911,3.86195 c 7.543292,-1.330085 15.247486,1.099167 20.663683,6.515364 5.4161934,5.416197 7.8454493,13.120391 6.5153643,20.663683 a 4.7605596,4.7605596 0 0 0 3.8619499,5.514908 4.7605596,4.7605596 0 0 0 5.5149079,-3.861262 C 5.6570235,77.908686 2.2351638,67.057432 -5.3705803,59.451688 -12.025606,52.796663 -21.165323,49.345395 -30.442606,49.837806 Z"
       id="path9845" />
    <path
       style="color:#000000;display:inline;fill:#000000;stroke:none;stroke-width:0.352778;stroke-linecap:round;-inkscape-stroke:none"
       d="m -31.190883,35.745985 c -1.892448,0.100503 -3.788741,0.31634 -5.679584,0.649746 a 4.7605596,4.7605596 0 0 0 -3.86195,5.514908 4.7605596,4.7605596 0 0 0 5.514908,3.861262 c 12.077297,-2.12955 24.421217,1.762136 33.092897,10.433819 8.6716832,8.67168 12.563369,21.0156 10.4338153,33.092897 a 4.7605596,4.7605596 0 0 0 3.8612657,5.514908 4.7605596,4.7605596 0 0 0 5.514908,-3.861953 C 20.352631,75.824831 15.469022,60.334543 4.6077954,49.473313 -4.8957802,39.969737 -17.943739,35.042462 -31.190883,35.745985 Z"
       id="path9847" />
    <path
       style="color:#000000;display:inline;fill:#000000;stroke:none;stroke-width:0.352778;stroke-linecap:round;-inkscape-stroke:none"
       d="m -28.254971,21.570108 c -3.6766,-0.02653 -7.379257,0.278787 -11.065647,0.928797 a 4.7605596,4.7605596 0 0 0 -3.86195,5.514908 4.7605596,4.7605596 0 0 0 5.514908,3.861265 C -21.056357,28.946056 -4.0740938,34.300866 7.8530757,46.228032 19.780242,58.155202 25.135052,75.137465 22.20603,91.748768 a 4.7605596,4.7605596 0 0 0 3.861262,5.514908 4.7605596,4.7605596 0 0 0 5.514911,-3.86195 C 35.048922,73.740976 28.702193,53.612341 14.58548,39.495628 3.1156513,28.025796 -12.323033,21.68505 -28.254971,21.570108 Z"
       id="path9849" />
    <path
       style="color:#000000;display:inline;fill:#000000;stroke:none;stroke-width:0.352778;stroke-linecap:round;-inkscape-stroke:none"
       d="m -29.694332,63.928932 c -0.758204,0.04019 -1.517798,0.126224 -2.275142,0.259761 a 4.7605596,4.7605596 0 0 0 -3.86195,5.514911 4.7605596,4.7605596 0 0 0 5.514908,3.86195 c 3.009286,-0.530616 6.075133,0.435511 8.235844,2.596226 2.160715,2.160711 3.126842,5.226558 2.596226,8.235844 a 4.7605596,4.7605596 0 0 0 3.86195,5.514908 4.7605596,4.7605596 0 0 0 5.514911,-3.86195 c 1.068317,-6.058729 -0.890422,-12.270952 -5.24068,-16.62121 -3.806475,-3.806475 -9.038639,-5.781738 -14.346067,-5.50044 z"
       id="path9851" />
    <g
       aria-label="BREADEBYTE"
       id="text11386"
       style="font-size:22.5778px;line-height:1.25;font-family:'SYFY Fantasy';-inkscape-font-specification:'SYFY Fantasy';display:inline;stroke-width:0.264583">
      <path
         d="m -150.90027,225.38128 v -2.48356 h -3.36409 v 2.48356 z m 0,7.38294 v -2.46098 h -3.36409 v 2.46098 z m -8.26347,-14.81104 h 16.12055 q 0.13547,0 0.22578,0.11289 0.11289,0.0903 0.11289,0.24835 v 7.06686 l -2.46098,2.46098 2.46098,2.46098 v 7.06685 q 0,0.13547 -0.11289,0.24835 -0.0903,0.0903 -0.22578,0.0903 h -19.07824 q -0.13547,0 -0.24836,-0.0903 -0.0903,-0.11288 -0.0903,-0.24835 v -16.12055 z"
         id="path23109" />
      <path
         d="m -129.97066,227.81968 v -4.92196 h -3.36409 v 4.92196 z m 4.92196,4.96711 3.27378,1.85138 v 2.70934 q 0,0.15805 -0.11289,0.27093 -0.0903,0.0903 -0.24835,0.0903 h -7.49583 q -0.13547,0 -0.24836,-0.0903 -0.0903,-0.11288 -0.0903,-0.24835 v -4.60587 h -3.36409 v 4.60587 q 0,0.13547 -0.11289,0.24835 -0.0903,0.0903 -0.24836,0.0903 h -7.54098 q -0.13547,0 -0.24836,-0.0903 -0.0903,-0.11288 -0.0903,-0.24835 v -16.12055 l 3.29636,-3.29636 h 16.12055 q 0.13547,0 0.22578,0.11289 0.11289,0.0903 0.11289,0.22578 v 11.17601 z"
         id="path23111" />
      <path
         d="m -117.37229,217.99834 h 16.05281 q 0.13547,0 0.22578,0.11288 0.11289,0.0903 0.11289,0.24836 v 4.19947 q 0,0.13547 -0.11289,0.24836 -0.0903,0.0903 -0.22578,0.11289 h -11.15343 v 2.4384 l 11.15343,0.0226 q 0.13547,0 0.22578,0.11289 0.11289,0.0903 0.11289,0.22577 v 4.22205 q 0,0.13547 -0.11289,0.24836 -0.0903,0.0903 -0.22578,0.0903 h -11.15343 v 2.46098 h 11.15343 q 0.13547,0 0.22578,0.11289 0.11289,0.11289 0.11289,0.24835 v 4.22205 q 0,0.13547 -0.11289,0.24836 -0.0903,0.0903 -0.22578,0.0903 h -16.05281 l -3.27378,-3.27378 v -13.1177 z"
         id="path23113" />
      <path
         d="m -91.656188,227.84226 h 3.364092 v -4.94454 h -3.364092 z m 8.263475,-9.88908 3.296359,3.29636 v 16.12055 q 0,0.13547 -0.112889,0.24835 -0.09031,0.0903 -0.225778,0.0903 h -7.518408 q -0.135466,0 -0.248355,-0.0903 -0.09031,-0.11288 -0.09031,-0.24835 v -4.60587 h -3.364092 v 4.60587 q 0,0.13547 -0.112889,0.24835 -0.09031,0.0903 -0.225778,0.0903 h -7.518408 q -0.135466,0 -0.248355,-0.0903 -0.09031,-0.11288 -0.09031,-0.24835 v -16.12055 l 3.296359,-3.29636 z"
         id="path23115" />
      <path
         d="m -67.362487,232.76422 v -9.8665 h -3.364093 v 9.8665 z m 4.854227,-14.81104 3.296359,3.29636 v 13.16286 l -3.296359,3.29636 h -16.12055 q -0.135467,0 -0.248356,-0.0903 -0.09031,-0.11288 -0.09031,-0.24835 v -19.05567 q 0,-0.15804 0.09031,-0.24835 0.112889,-0.11289 0.248356,-0.11289 z"
         id="path23117" />
      <path
         d="m -54.809251,217.99834 h 16.052817 q 0.135467,0 0.225778,0.11288 0.112889,0.0903 0.112889,0.24836 v 4.19947 q 0,0.13547 -0.112889,0.24836 -0.09031,0.0903 -0.225778,0.11289 h -11.153434 v 2.4384 l 11.153434,0.0226 q 0.135467,0 0.225778,0.11289 0.112889,0.0903 0.112889,0.22577 v 4.22205 q 0,0.13547 -0.112889,0.24836 -0.09031,0.0903 -0.225778,0.0903 h -11.153434 v 2.46098 h 11.153434 q 0.135467,0 0.225778,0.11289 0.112889,0.11289 0.112889,0.24835 v 4.22205 q 0,0.13547 -0.112889,0.24836 -0.09031,0.0903 -0.225778,0.0903 h -16.052817 l -3.273781,-3.27378 v -13.1177 z"
         id="path23119" />
      <path
         d="m -25.729054,225.38128 v -2.48356 h -3.364092 v 2.48356 z m 0,7.38294 v -2.46098 h -3.364092 v 2.46098 z m -8.263475,-14.81104 h 16.12055 q 0.135466,0 0.225778,0.11289 0.112889,0.0903 0.112889,0.24835 v 7.06686 l -2.460981,2.46098 2.460981,2.46098 v 7.06685 q 0,0.13547 -0.112889,0.24835 -0.09031,0.0903 -0.225778,0.0903 h -19.078242 q -0.135467,0 -0.248356,-0.0903 -0.09031,-0.11288 -0.09031,-0.24835 v -16.12055 z"
         id="path23121" />
      <path
         d="m 3.3511405,226.19408 -5.3960944,4.92196 v 6.25405 q 0,0.13547 -0.112889,0.24835 -0.090311,0.0903 -0.225778,0.0903 h -8.2860531 q -0.135467,0 -0.248356,-0.0903 -0.09031,-0.11288 -0.09031,-0.24835 v -6.25405 l -5.396094,-4.92196 v -7.90223 q 0,-0.13547 0.09031,-0.22578 0.112889,-0.11289 0.248356,-0.11289 h 7.3603629 q 0.1580446,0 0.2483558,0.11289 0.112889,0.0903 0.112889,0.22578 v 9.52783 h 3.7253371 v -9.52783 q 0,-0.13547 0.090311,-0.22578 0.112889,-0.11289 0.2483558,-0.11289 h 7.2926297 q 0.1354668,0 0.225778,0.11289 0.112889,0.0903 0.112889,0.22578 z"
         id="path23123" />
      <path
         d="m 23.716296,221.22696 v 1.67076 h -5.508983 v 14.44979 q 0,0.15805 -0.112889,0.27093 -0.09031,0.0903 -0.225778,0.0903 h -7.518408 q -0.158044,0 -0.270933,-0.0903 -0.090312,-0.11288 -0.090312,-0.27093 V 222.89772 H 4.48001 v -1.67076 L 7.7763689,217.9306 H 20.442515 Z"
         id="path23125" />
      <path
         d="M 28.118934,217.99834 H 44.17175 q 0.135467,0 0.225778,0.11288 0.112889,0.0903 0.112889,0.24836 v 4.19947 q 0,0.13547 -0.112889,0.24836 -0.09031,0.0903 -0.225778,0.11289 H 33.018317 v 2.4384 l 11.153433,0.0226 q 0.135467,0 0.225778,0.11289 0.112889,0.0903 0.112889,0.22577 v 4.22205 q 0,0.13547 -0.112889,0.24836 -0.09031,0.0903 -0.225778,0.0903 H 33.018317 v 2.46098 H 44.17175 q 0.135467,0 0.225778,0.11289 0.112889,0.11289 0.112889,0.24835 v 4.22205 q 0,0.13547 -0.112889,0.24836 -0.09031,0.0903 -0.225778,0.0903 H 28.118934 l -3.273781,-3.27378 v -13.1177 z"
         id="path23127" />
    </g>
  </g>
</svg>
